<?xml version="1.0" encoding="utf-8"?>
<!-- Generator: Adobe Illustrator 16.0.3, SVG Export Plug-In . SVG Version: 6.00 Build 0)  -->
<!DOCTYPE svg PUBLIC "-//W3C//DTD SVG 1.1//EN" "http://www.w3.org/Graphics/SVG/1.1/DTD/svg11.dtd">
<svg version="1.1" id="Capa_1" xmlns="http://www.w3.org/2000/svg" xmlns:xlink="http://www.w3.org/1999/xlink" x="0px" y="0px"
	 width="505px" height="354px" viewBox="0 0 505 354" enable-background="new 0 0 505 354" xml:space="preserve">
<g>
	<path fill-rule="evenodd" clip-rule="evenodd" fill="#231F20" d="M194.022,180.083c3.109,3.811,5.511,7.979,6.892,12.586
		c3.365,11.223,8.415,21.725,13.567,32.164c3.818,7.736,6.574,15.871,9.833,23.817c0.227,0.554,0.275,1.212,0.964,1.751
		c0.263-4.203-0.209-8.316,0.27-12.372c0.201-0.007,0.401-0.015,0.602-0.021c0.485,3.699,1.057,7.392,1.434,11.104
		c0.384,3.788,0.671,7.592,0.828,11.396c0.155,3.744,0.606,7.476,0.473,11.234c-0.135,3.813-0.722,7.559-1.756,11.599
		c1.609-1.524,2.644-3.081,4.406-3.964c-0.64,1.223-1.287,2.441-1.92,3.669c-0.957,1.856-1.475,3.813-1.468,5.923
		c0.004,1.117,0.374,1.14,1.189,0.63c1.49-0.933,3.108-1.567,4.811-2.014c1.461-0.384,2.792-0.193,4.343,0.862
		c-3.478,0.595-5.695,2.921-8.355,4.489c-2.951,1.739-4.522,4.403-5.566,7.45c-0.995,2.902-1.759,5.881-0.322,8.896
		c0.099,0.209-0.059,0.797,0.366,0.58c2.015-1.031,1.355,0.846,1.506,1.479c0.513,2.153,0.582,4.435,2.163,6.499
		c0.523-2.616,0.791-5.098,2.482-7.054c0.731-0.845,1.488-1.462,2.744-1.11c1.385,0.389,2.243,1.049,1.962,2.643
		c-0.265,1.499,0.756,2.248,1.798,2.975c0.916,0.639,1.518-0.059,2.148-0.522c1.647-1.216,2.607-1.091,3.513,0.767
		c0.515,1.057,1.265,1.792,2.174,2.605c0.501-0.82,0.399-1.688,0.517-2.506c0.233-1.631,1.26-2.125,2.643-1.22
		c0.905,0.594,1.525,1.454,1.906,2.483c0.454,1.225,1.002,2.422,1.375,3.672c0.368,1.234,0.568,2.518,0.912,4.1
		c1.68-2.718,2.866-5.28,3.705-8.006c0.128-0.414,0.142-0.873,0.32-1.258c0.396-0.852,1.063-1.461,2.044-1.176
		c1.023,0.299,1.206,1.213,1.034,2.139c-0.256,1.38-0.598,2.743-0.935,4.26c2.985-1.422,2.846-4.24,3.533-6.623
		c0.173-0.595,0.236-1.229,0.286-1.849c0.038-0.461,0.042-0.94,0.621-0.964c0.511-0.02,0.778,0.406,0.873,0.844
		c0.209,0.975,0.436,1.956,0.511,2.945c0.134,1.735,0.856,3.24,1.656,4.727c0.203,0.379,0.414,0.828,0.957,0.734
		c0.539-0.094,0.58-0.625,0.673-1.014c0.156-0.66,0.31-1.334,0.116-2.034c-0.136-0.493-0.137-0.968,0.4-1.309
		c0.6-0.382,1.068-0.114,1.542,0.21c0.585,0.4,1.026,0.949,1.261,1.598c0.928,2.57,3.304,4.412,3.369,7.854
		c2.346-2.971,3.395-5.758,3.453-8.907c0.017-0.834-0.463-1.921,0.829-2.099c1.278-0.177,1.411,0.938,1.631,1.854
		c0.055,0.229,0.165,0.444,0.416,0.65c0.624-2.212,0.489-4.446-0.314-6.541c-1.142-2.976-2.684-5.783-4.787-8.206
		c-1.276-1.47-2.157-3.179-3.218-4.778c-0.242-0.367-0.797-0.812-0.177-1.276c0.553-0.415,0.917,0.119,1.278,0.422
		c3.383,2.821,6.221,6.137,8.752,9.725c0.632,0.896,1.145,1.765,2.527,1.737c1.115-0.021,1.775,1.039,2.49,1.836
		c0.986-2.568-0.051-6.487-2.37-8.416c-1.101-0.914-1.577-1.997-1.798-3.334c-0.361-2.195-1.201-4.063-2.97-5.634
		c-2.97-2.64-6.144-5.179-8.245-8.603c-1.93-3.142-3.674-8.018-2.986-11.285c0.785,2.551,1.979,4.543,3.209,6.525
		c0.416-0.269,0.271-0.583,0.192-0.857c-1.851-6.395-3.104-12.978-6.052-19.025c-2.404-4.936-2.886-10.43-4.484-15.602
		c-1.679-5.434-4.055-10.48-7.949-14.678c-3.73-4.02-8.191-7.014-13.354-9.01c3.889-0.426,7.502,0.549,11.179,2.341
		c-2.056-6.005-3.563-11.88-4.591-17.896c-1.684-9.855,0.391-18.924,5.124-27.583c3.678-6.726,7.146-13.565,10.736-20.338
		c0.566-1.069,1.1-2.896,2.314-2.557c1.23,0.343,0.639,2.194,0.614,3.372c-0.091,4.372-2.03,8.194-3.888,11.996
		c-2.215,4.534-4.91,8.812-7.05,13.4c-2.766,5.934-3.109,12.17-2.726,18.497c0.532,8.786,3.01,17.161,5.77,25.46
		c0.359,1.082,0.912,1.951,1.715,2.805c2.123,2.256,3.438,5.021,4.317,7.979c2.433,8.177,4.554,16.442,7.133,24.581
		c2.052,6.479,3.437,13.148,4.79,19.807c0.291,1.437,1.127,2.217,2.069,2.91c5.16,3.797,8.114,9.004,9.845,15.021
		c0.125,0.434,0.267,0.811,0.557,1.152c3.572,4.22,3.269,8.791,1.182,13.502c-0.736,1.66-1.57,3.244-3.438,3.969
		c-0.784,0.303-1.16,0.999-1.467,1.805c-0.35,0.918-0.746,2.02-1.477,2.559c-4.029,2.967-7.01,7.135-11.309,9.766
		c-0.555,0.34-1.191,0.904-1.873,0.479c-0.717-0.446-0.162-1.137-0.065-1.708c0.763-4.558-0.575-6.18-5.688-6.689
		c-2.232-0.223-4.479,0.43-6.726-0.026c-0.671-0.136-0.753,0.52-1,0.918c-1.619,2.616-3.579,4.956-5.789,7.089
		c-0.636,0.615-1.381,1.314-2.286,0.865c-1.077-0.535-0.409-1.459-0.272-2.301c0.376-2.32,0.082-4.602-0.754-6.8
		c-0.203-0.532-0.563-0.965-1.108-1.214c-2.166-0.989-4.196-2.207-6.017-3.744c-0.563-0.475-1.15-0.375-1.762-0.334
		c-1.496,0.098-2.995,0.326-4.486,0.276c-1.542-0.051-1.953,0.624-1.869,2.014c0.061,1.008,0.152,1.988,0.532,2.93
		c0.217,0.537,0.377,1.062-0.203,1.509c-0.595,0.459-1.089,0.08-1.538-0.209c-1.586-1.021-3.018-2.259-4.068-3.817
		c-2.734-4.056-4.849-8.478-5.671-13.274c-0.919-5.355-0.401-10.711,1.958-15.742c0.192-0.41,0.312-0.752,0.191-1.229
		c-0.5-1.99-0.264-3.99,0.203-5.937c2.563-10.669,1.696-21.186-1.299-31.619c-0.842-2.935-1.736-5.855-2.533-8.802
		c-0.728-2.695-2.226-4.996-3.593-7.365c-4.645-8.047-9.631-15.918-13.872-24.173c-5.031-9.792-9.027-20.024-8.743-31.364
		C193.582,181.75,193.439,180.911,194.022,180.083z"/>
	<path fill-rule="evenodd" clip-rule="evenodd" fill="#231F20" d="M315.819,245.305c0.332-7.802,0.684-15.603,0.99-23.405
		c0.316-8.052-0.752-15.936-2.938-23.684c-0.288-1.019-0.631-1.453-1.895-1.365c-11.218,0.777-21.107,4.656-29.416,12.321
		c-0.527,0.486-1.041,0.584-1.68,0.581c-3.814-0.02-6.625-1.852-8.863-4.802c-0.646-0.851-0.226-1.287,0.383-1.842
		c9.566-8.714,20.666-14.229,33.482-16.298c4.961-0.801,9.956-0.705,14.939-0.949c14.223-0.7,28.424-1.925,42.684-1.758
		c1.561,0.018,3.132,0.113,4.682-0.018c1.434-0.12,1.931,0.552,2.329,1.788c0.667,2.068,0.5,4.072-0.14,6.06
		c-0.855,2.658-2.773,4.01-5.526,4.34c-3.894,0.469-7.724-0.051-11.557-0.605c-7.456-1.08-14.913-1.551-22.353,0.088
		c-3.23,0.711-3.268,0.762-3.129,3.938c0.486,11.141-0.486,22.226-1.288,33.313c-0.776,10.734-0.821,21.469-0.425,32.213
		c0.255,6.869,0.776,13.72,1.799,20.518c0.232,1.549-0.421,1.832-1.662,1.949c-6.748,0.636-11.467-3.717-11.291-10.531
		c0.223-8.682,0.521-17.36,0.762-26.041c0.055-1.934,0.009-3.871,0.009-5.809C315.751,245.306,315.786,245.306,315.819,245.305z"/>
	<path fill-rule="evenodd" clip-rule="evenodd" fill="#231F20" d="M35.153,247.32c-0.032,9.15,1.519,16.146,6.994,21.74
		c4.498,4.596,10.223,6.78,16.379,8.01c9.31,1.858,18.375,1.508,26.916-3.18c3.466-1.902,6.667-4.159,9.298-7.152
		c0.123-0.141,0.252-0.278,0.394-0.4c0.652-0.564,1.376-1.471,2.228-0.988c1.021,0.58,0.496,1.679,0.167,2.539
		c-2.544,6.647-5.8,12.841-11.278,17.617c-6.175,5.383-13.472,7.025-21.327,5.821c-11.613-1.78-21.902-6.659-30.667-14.521
		c-7.617-6.832-11.77-15.514-11.382-25.699c0.754-19.846,8.059-37.051,22.761-50.648c8.073-7.468,17.974-11.719,28.761-13.432
		c6.862-1.09,13.556,0.199,19.531,4.112c0.208,0.136,0.41,0.286,0.598,0.45c0.661,0.577,1.482,1.172,1.122,2.168
		c-0.384,1.064-1.406,1.186-2.369,0.996c-4.045-0.797-8.095-0.49-12.131-0.035c-13.891,1.57-26.145,6.404-34.898,17.945
		c-5.881,7.753-8.748,16.719-10.214,26.209C35.52,242.208,35.115,245.556,35.153,247.32z"/>
	<path fill-rule="evenodd" clip-rule="evenodd" fill="#231F20" d="M153.031,247.39c0.192-7.63,1.183-15.197,1.743-22.797
		c0.295-4.006,0.348-4.063-3.63-4.057c-3.936,0.006-7.871,0.173-11.808,0.225c-1.604,0.022-3.187,0.107-4.443-1.358
		c-2.255-2.632-0.84-5.534,1.517-7.645c1.394-1.248,3.212-1.579,5.054-1.692c3.429-0.211,6.854-0.573,10.284-0.633
		c4.959-0.086,7.328-3.394,8.393-7.639c1.835-7.316,3.3-14.725,4.928-22.094c0.264-1.193,0.288-2.562,1.957-2.789
		c1.651-0.225,2.98,0.313,3.823,1.747c0.855,1.456,1.377,2.919,1.042,4.769c-1.206,6.635-2.581,13.213-4.791,19.602
		c-0.809,2.338-0.19,3.33,2.174,3.988c2.534,0.705,4.942,0.049,7.362-0.577c2.349-0.608,4.687-1.26,7.049-1.812
		c3.048-0.713,5.042,0.945,4.962,4.055c-0.009,0.374-0.034,0.751-0.093,1.12c-0.706,4.433-0.707,4.445-5.107,4.896
		c-5.754,0.591-11.289,1.978-16.565,4.384c-1.095,0.5-1.751,1.086-2.019,2.376c-2.176,10.5-3.725,21.048-2.418,31.794
		c0.686,5.638,1.746,11.211,4.142,16.441c3.298,7.198,8.114,8.587,15.516,5.756c6.06-2.318,11.16-6.119,15.65-10.691
		c1.73-1.762,3.709-1.824,5.793-1.916c0.809-0.036,1.318,0.736,1.573,1.416c0.576,1.538,0.58,3.08-0.594,4.396
		c-6.54,7.328-13.69,13.801-23.034,17.508c-5.763,2.287-11.181,2.005-16.15-1.592c-2.82-2.041-5.007-4.854-6.714-7.956
		c-3.914-7.115-5.448-14.815-5.59-22.851C152.999,251.64,153.031,249.515,153.031,247.39z"/>
	<path fill-rule="evenodd" clip-rule="evenodd" fill="#231F20" d="M465.194,223.282c0.275-12.37,0.97-24.72,1.764-37.064
		c0.191-2.956,2.42-5.405,4.802-5.21c3.13,0.255,4.972,2.686,4.622,6.055c-1.586,15.3-2.383,30.636-1.902,46.02
		c0.493,15.777,2.932,31.158,9.529,45.666c0.723,1.59,0.73,3.268,0.633,4.962c-0.207,3.604-1.773,4.712-5.358,3.758
		c-2.497-0.664-4.323-2.218-5.526-4.447c-2.631-4.878-4.047-10.178-5.135-15.563C465.678,252.875,464.972,238.112,465.194,223.282z"
		/>
	<path fill-rule="evenodd" clip-rule="evenodd" fill="#231F20" d="M347.876,258.121c1.563-2.436,2.356-4.651,3.18-6.84
		c1.424-3.787,2.743-7.613,4.168-11.4c0.885-2.35,2.217-4.497,3.762-6.437c3.523-4.426,7.934-5.977,13.592-4.298
		c7.467,2.215,12.553,6.59,14.66,14.238c0.394,1.429-0.107,1.803-1.326,1.906c-1.356,0.115-2.577-0.385-3.791-0.857
		c-3.715-1.447-7.141-3.535-10.93-4.828c-5.281-1.799-6.705-1.31-9.078,3.812c-3.292,7.108-5.041,14.713-6.895,22.276
		c-1.268,5.168-1.854,10.438-2.244,15.731c-0.266,3.609-2.627,6.025-6.226,6.275c-2.714,0.188-4.319-1.214-4.632-3.94
		c-1.318-11.532-2.672-23.061-3.982-34.594c-0.316-2.795-0.363-5.607-0.183-8.418c0.024-0.371,0.122-0.736,0.169-1.107
		c0.227-1.781,1.537-2.936,2.955-3.297c1.244-0.316,2.217,1.148,2.935,2.18c1.185,1.7,1.791,3.677,2.251,5.696
		C347.259,248.607,347.29,253.105,347.876,258.121z"/>
	<path fill-rule="evenodd" clip-rule="evenodd" fill="#231F20" d="M275.679,30.734c1.605,0.301,2.674,1.164,3.806,1.863
		c14.38,8.87,23.114,21.856,27.644,37.916c3.268,11.583,3.916,23.332,2.434,35.249c-4.059,32.632-17.66,61.197-37.102,87.283
		c-0.363,0.488-0.781,0.935-1.264,1.506c-0.451-0.931,0.044-1.534,0.322-2.165c1.516-3.437,3.633-6.534,5.508-9.768
		c10.327-17.805,18.697-36.47,24.629-56.193c3.746-12.456,5.188-25.199,3.6-38.135c-2.689-21.92-11.92-40.624-28.125-55.772
		C276.646,32.064,275.979,31.755,275.679,30.734z"/>
	<path fill-rule="evenodd" clip-rule="evenodd" fill="#231F20" d="M213.051,36.686c4.223-3.293,9.073-4.448,14.12-5.164
		c5.465-0.775,10.834,0.194,16.247,0.574c6.03,0.422,12.101,0.927,17.917-1.555c1.917-0.818,3.643-1.926,5.3-3.122
		c1.249-0.901,1.978-0.655,2.961,0.388c3.341,3.544,5.323,7.788,6.761,12.364c2.287,7.272,2.517,14.521,0.512,21.941
		c-1.574,5.821-1.868,11.828-1.276,17.855c0.061,0.617,0.516,1.544-0.435,1.752c-0.74,0.162-0.848-0.793-1.115-1.296
		c-2.879-5.413-3.074-11.068-1.557-16.91c1.481-5.701,2.518-11.47,2.072-17.406c-0.373-4.992-2.184-9.427-5.127-13.453
		c-0.806-1.102-1.121-0.584-1.682,0.181c-4.324,5.901-8.154,12.104-11.615,18.546c-1.327,2.468-2.892,4.809-4.346,7.208
		c-0.267,0.44-0.56,0.879-1.162,0.729c-0.709-0.177-0.741-0.79-0.7-1.354c0.119-1.628,0.512-3.165,1.255-4.656
		c3.107-6.232,6.966-11.964,11.322-17.376c0.301-0.373,0.561-0.777,0.723-1.342c-12.063,6.802-24.356,13.117-36.708,19.387
		c2.327-2.102,4.888-3.918,6.774-6.581c-3.111-1.594-6.25-2.946-9.441-4.978c1.991-0.647,3.693-0.429,5.14,0.179
		c5.511,2.312,10.438,1.208,15.174-2.042c1.984-1.361,4.111-2.515,6.409-3.905c-7.307-0.362-14.12-2.355-21.173-2.461
		c-5.118-0.077-10.078,0.648-14.892,2.375C214.102,36.709,213.73,36.982,213.051,36.686z"/>
	<path fill-rule="evenodd" clip-rule="evenodd" fill="#231F20" d="M441.511,255.467c0-4.434,0.025-8.866-0.021-13.3
		c-0.009-0.936,0.387-1.516,1.065-2.038c2.049-1.577,5.854-1.612,7.951-0.099c0.837,0.604,1.158,1.33,1.125,2.379
		c-0.15,4.879-0.95,9.691-1.385,14.539c-0.312,3.49-0.5,6.962,0.117,10.451c0.704,3.984,2.327,7.482,5.122,10.408
		c0.515,0.539,0.892,0.965,0.454,1.76c-1.232,2.236-2.342,4.527-4.154,6.411c-1.809,1.88-3.861,2.04-6.18,1.319
		c-0.779-0.242-0.975-0.871-1.242-1.508c-1.687-4.012-2.449-8.24-2.85-12.534C440.962,267.339,441.067,261.402,441.511,255.467z"/>
	<path fill-rule="evenodd" clip-rule="evenodd" fill="#4E6E17" d="M438.648,219.233c0.071-4.296,1.05-8.298,4.047-11.542
		c3.519-3.807,8.267-3.797,11.782-0.066c5.723,6.072,5.569,17.692-0.311,23.601c-3.221,3.237-7.725,3.28-11,0.104
		C440.254,228.505,438.636,224.177,438.648,219.233z"/>
	<path fill-rule="evenodd" clip-rule="evenodd" fill="#231F20" d="M257.573,115.703c-2.25,5.7-7.214,9.488-10.069,14.686
		c0.669,0.472,1.066,0.04,1.501-0.154c4.382-1.951,8.66-4.2,13.171-5.779c5.237-1.833,7.844-5.629,9.42-10.546
		c1.064-3.32,1.049-6.766,1.244-10.188c0.082-1.433,0.113-2.87,0.182-4.304c0.014-0.294-0.014-0.662,0.408-0.72
		c0.46-0.063,0.68,0.208,0.755,0.625c0.021,0.122,0.026,0.249,0.024,0.373c-0.096,5.367,0.329,10.758-0.574,16.089
		c-0.727,4.282-3.199,7.507-6.477,10.196c-3.252,2.67-6.871,4.712-10.674,6.502c-6.843,3.221-13.552,6.708-19.052,12.045
		c-2.956,2.869-5.715,5.941-8.64,8.844c-2.705,2.683-5.51,5.264-8.278,7.884c-0.397,0.376-0.857,0.952-1.411,0.381
		c-0.492-0.507,0.131-0.887,0.418-1.251c6.935-8.764,13.732-17.642,20.863-26.244c4.937-5.956,10.041-11.795,15.568-17.232
		C256.417,116.456,256.827,115.91,257.573,115.703z"/>
	<path fill-rule="evenodd" clip-rule="evenodd" fill="#231F20" d="M238.894,78.917c-1.799,3.979-5.305,5.952-8.86,7.78
		c-1.358,0.698-2.31,1.607-3.069,2.866c-1.749,2.897-3.641,5.678-6.497,7.643c-1.935,1.331-4.002,2.231-6.385,2.42
		c-1.359,0.108-2.729,0.347-4.043,0.713c-2.719,0.757-4.484,2.415-5.136,5.317c-0.819,3.649-1.614,7.286-1.697,11.438
		c-1.258-1.967-1.572-3.847-1.75-5.711c-0.65-6.805,1.585-12.929,4.841-18.702c1.241-2.201,3.84-3.129,5.715-4.763
		c3.188-2.778,6.933-4.003,11.104-4.324c5.098-0.394,9.879-1.973,14.398-4.352c0.275-0.145,0.549-0.295,0.837-0.408
		C238.449,78.794,238.589,78.865,238.894,78.917z"/>
	<path fill-rule="evenodd" clip-rule="evenodd" fill="#231F20" d="M247.731,289.146c0.574,0.037,0.891,0.027,1.196,0.082
		c1.081,0.195,1.634,0.004,1.302-1.311c-0.148-0.586-0.663-1.436,0.089-1.891c0.818-0.497,1.378,0.291,1.899,0.789
		c4.057,3.881,8.219,7.686,10.145,13.207c0.828,2.371,1.285,4.807,1.338,7.319c0.016,0.767,0.095,1.552-0.93,1.739
		c-1.018,0.186-1.088-0.699-1.275-1.282c-0.975-3.038-2.196-5.942-4.016-8.591c-2.834-4.127-6.677-6.789-11.462-8.18
		c-0.572-0.167-1.636,0.021-1.565-0.924c0.063-0.844,1.021-0.75,1.676-0.84C246.744,289.18,247.37,289.171,247.731,289.146z"/>
	<path fill-rule="evenodd" clip-rule="evenodd" fill="#231F20" d="M162.917,47.879c1.175,0.388,2.079,1.165,3.008,1.875
		c3.515,2.686,6.967,5.454,10.518,8.09c2.606,1.935,3.267,3.844,1.646,7.538c-0.579,1.32-1.399,2.555-2.799,3.415
		c0.223-6.179-3.848-9.971-7.254-14.071c-1.146-1.38-2.619-2.484-3.912-3.745C163.277,50.157,162.406,49.308,162.917,47.879z"/>
	<path fill-rule="evenodd" clip-rule="evenodd" fill="#242021" d="M238.651,307.019c-0.179-2.387,0.046-4.758,0.683-7.045
		c0.699-2.51,0.281-4.525-1.9-6.105c-0.415-0.301-1.347-0.672-0.741-1.405c0.623-0.753,1.145,0.146,1.512,0.479
		c1.55,1.402,3.02,1.882,4.59,0.057c0.223-0.26,0.58-0.503,0.985-0.197c0.424,0.32,0.359,0.666,0.218,1.146
		c-1.424,4.867-2.395,9.795-1.869,14.914c0.057,0.549-0.136,1.119-0.119,1.677c0.036,1.143-0.4,2.18-1.539,2.134
		c-0.989-0.039-1.655-1.1-1.784-2.103C238.536,309.405,238.651,308.205,238.651,307.019z"/>
	<path fill-rule="evenodd" clip-rule="evenodd" fill="#242021" d="M266.384,287.207c1.223,0.194,2.447,0.552,2.853-1.278
		c0.158-0.711,0.893-0.72,1.22-0.038c1.256,2.62,2.446,5.272,3.652,7.917c0.103,0.226,0.129,0.499-0.137,0.653
		c-0.357,0.207-0.752,0.151-1.058-0.065c-1.061-0.753-2.142-1.488-3.126-2.335c-1.311-1.126-2.366-2.544-3.961-3.349
		c-0.432-0.218-0.877-0.601-0.592-1.192C265.468,287.037,265.944,287.111,266.384,287.207z"/>
	<path fill-rule="evenodd" clip-rule="evenodd" fill="#231F20" d="M432.668,251.585c1.292-6.676,1.979-13.359-0.101-20.006
		c-2.283-7.296-5.366-8.988-12.342-7.418c-13.529,3.043-22.882,11.959-31.412,22.057c-1.049,1.242-0.807,3.747,0.123,4.492
		c1.587,1.271,3.848,1.313,5.094-0.109c3.231-3.689,7.177-6.57,10.881-9.717c4.513-3.834,9.492-6.871,15.417-8.07
		c2.337-0.473,3.784,0.19,4.881,2.349c3.515,6.923,0.403,15.191-6.792,18.072c-4.627,1.853-9.309,3.585-13.852,5.622
		c-5.268,2.36-9.447,6.063-12.123,11.25c-4.004,7.76-0.58,15.166,7.898,17.117c2.381,0.547,4.84,0.514,7.675,0.481
		c3.917,0.384,8.057-0.566,12.155-1.704c3.994-1.109,7.84-2.528,10.717-5.77c0.656-0.736,0.835-1.316,0.482-2.299
		c-1.344-3.754-1.736-7.612-1.311-11.611C430.591,261.341,431.72,256.484,432.668,251.585z M419.35,274.896
		c-1.78,1.271-3.647,2.396-5.622,3.319c-3.506,1.638-8.284,0.269-10.542-2.897c-0.425-0.594-0.431-1.08-0.126-1.713
		c0.607-1.261,1.364-2.434,2.547-3.16c3.629-2.23,7.4-4.098,11.816-4.107c2.811-0.007,2.816-0.035,3.481,2.705
		c0.16,0.661,0.271,1.335,0.405,2.003C421.319,272.691,420.692,273.937,419.35,274.896z"/>
	<path fill-rule="evenodd" clip-rule="evenodd" fill="#231F20" d="M142.142,241.439c0-0.938,0.053-1.878-0.009-2.811
		c-0.253-3.762-0.809-7.453-2.828-10.75c-1.735-2.834-4.057-4.426-7.596-3.924c-11.868,1.684-21.125,7.827-28.799,16.701
		c-1.055,1.219-1.485,2.721-1.281,4.371c0.232,1.881,1.063,2.457,2.942,2.062c2.22-0.468,3.945-1.735,5.616-3.193
		c5.388-4.7,10.981-9.072,18.183-10.72c2.908-0.665,4.5,0.118,5.535,2.904c0.281,0.754,0.468,1.552,0.626,2.344
		c1.478,7.382-1.446,12.736-8.434,15.465c-3.541,1.384-7.073,2.788-10.629,4.131c-4.529,1.711-8.396,4.392-11.626,7.964
		c-2.665,2.946-4.363,6.409-4.677,10.397c-0.377,4.803,3.468,9.432,9.054,10.947c4.971,1.348,10.017,1.229,15.05,0.367
		c5.817-0.997,11.151-3.12,15.702-6.984c0.675-0.573,1.403-1.105,0.947-2.174c-2.537-5.946-1.701-12-0.517-18.047
		C140.637,254.182,142.107,247.914,142.142,241.439z M128.936,269.599c-0.612,5.887-3.985,8.805-10.582,8.747
		c-1.47-0.074-3.462-0.212-5.303-1.106c-1.499-0.728-2.103-1.816-1.502-3.506c0.739-2.078,1.933-3.794,3.805-4.942
		c3.589-2.201,7.509-2.913,11.673-2.382C129.038,266.666,129.091,268.109,128.936,269.599z"/>
	<path fill-rule="evenodd" clip-rule="evenodd" fill="#231F20" d="M203.876,169.193c-4.192-0.1-8.353-0.334-12.347-1.822
		c-1.959-0.73-3.477-1.886-4.482-3.74c-0.811-1.496,0.638-2.09,1.153-3.048c0.173-0.321,0.366-0.739,0.999-0.405
		c3.901,2.054,8.23,2.393,12.488,2.906c2.902,0.351,5.854,0.821,9.013-0.16c-6.082-3.248-12.313-5.353-18.647-7.196
		c-2.786-0.811-4.252-3.353-3.585-6.198c0.38-1.621,1.23-2.941,2.396-4.152c3.172-3.296,5.859-6.967,8.061-10.985
		c0.313-0.573,0.616-1.276,0.063-1.71c-0.621-0.486-0.933,0.369-1.331,0.675c-7.44,5.707-15.431,7.193-24.194,3.303
		c-1.658-0.736-2.359-1.703-2.071-3.599c1.54-10.117,4.377-19.904,8.909-29.012c1.813-3.645,1.523-6.244-0.305-9.292
		c-0.743-1.238-1.6-2.371-2.631-3.392c-2.149-2.128-4.905-3.434-7.193-5.377c-0.771-0.654-1.016-1.183-0.67-2.191
		c0.889-2.592,1.615-5.239,2.434-7.855c1.119-3.581,0.28-6.479-2.551-9.055c-3.425-3.117-6.425-6.653-8.55-10.826
		c-1.749-3.434-2.135-7.067-1.55-11.042c5.278,3.241,10.802,5.386,16.304,7.537c4.384,1.714,8.81,1.75,13.264-0.258
		c6.038-2.724,9.405-8.434,14.403-12.34c-2.03,0.292-3.818,1.144-5.607,1.964c-12.182,5.589-24.594,7.097-37.388,2.19
		c-1.143-0.438-1.783-0.022-2.388,1.051c-1.851,3.281-0.998,6.544-0.12,9.809c1.519,5.648,4.863,10.21,8.808,14.371
		c0.861,0.908,1.206,1.794,0.955,3.009c-0.214,1.037-0.256,2.107-0.428,3.154c-0.632,3.847-2.046,7.427-3.696,10.938
		c-1.377,2.933-1.731,5.776,0.682,8.507c1.523,1.724,2.759,3.703,3.52,5.919c1.415,4.125,2.792,8.263,4.243,12.374
		c0.296,0.84,0.231,1.538-0.122,2.314c-2.122,4.667-3.534,9.582-4.978,14.481c-0.657,2.23-1.266,4.635-0.407,6.824
		c2.208,5.627,4.77,11.127,7.841,16.331c3.042,5.152,7.099,9.631,10.186,14.791c1.828,3.055,4.779,4.876,8.408,5.375
		c1.606,0.221,3.211,0.464,4.823,0.632c4.632,0.483,8.421-1.475,12.167-4.174C207.708,168.984,205.772,169.238,203.876,169.193z
		 M184.738,159.556c-0.461,0.336-0.75,0.184-1.172,0.027c-2.254-0.835-3.934-2.256-5.118-4.392
		c-1.903-3.43-2.305-7.316-3.511-10.973c2.61,2.543,5.433,4.657,8.62,6.294c0.601,0.309,1.154,0.749,1.652,1.212
		C188.075,154.389,187.875,157.268,184.738,159.556z"/>
	<path fill-rule="evenodd" clip-rule="evenodd" fill="#4E6E18" d="M179.296,99.811c-0.733,1.358-1.328,1.331-2.191-0.002
		c-0.992-1.531-1.69-3.157-2.251-4.866c0.393-0.715-0.2-1.596,0.381-2.28c1.934,1.302,3.448,2.93,4.067,5.251
		C179.571,98.546,179.573,99.179,179.296,99.811z"/>
	<path fill-rule="evenodd" clip-rule="evenodd" fill="#6B7E48" d="M175.235,92.662c-0.231,0.743,0.229,1.601-0.382,2.28
		C175.023,94.189,174.244,93.278,175.235,92.662z"/>
	<path fill-rule="evenodd" clip-rule="evenodd" fill="#647446" d="M179.296,99.811c0.002-0.632,0.004-1.264,0.006-1.896
		C179.847,98.547,179.86,99.18,179.296,99.811z"/>
	<path fill-rule="evenodd" clip-rule="evenodd" fill="#3D393A" d="M347.896,259.515c0.251,0.403,0.229,0.791-0.003,1.299
		C347.63,260.322,347.586,259.935,347.896,259.515z"/>
	<path fill-rule="evenodd" clip-rule="evenodd" fill="#4E6E17" d="M212.722,96.086c-2.275-0.989-2.378-1.548-0.565-2.936
		c1.923-1.473,3.688-3.133,5.646-4.575c1.547-1.14,2.695-1.24,3.813,0.396c-0.222,0.735-0.202,1.473-0.011,2.21
		c-0.861,1.811-1.962,3.406-3.789,4.391c-0.671,0.361-1.352,0.591-2.119,0.516C214.705,96.367,213.713,96.371,212.722,96.086z"/>
	<path fill-rule="evenodd" clip-rule="evenodd" fill="#6C7B4F" d="M212.722,96.086c0.991,0.001,1.983,0.002,2.975,0.002
		C214.704,96.642,213.713,96.665,212.722,96.086z"/>
	<path fill-rule="evenodd" clip-rule="evenodd" fill="#6E824B" d="M221.604,91.182c-0.473-0.739-0.482-1.476,0.012-2.21
		C221.612,89.709,221.608,90.446,221.604,91.182z"/>
</g>
</svg>
