<?xml version="1.0" encoding="utf-8"?>
<!-- Generator: Adobe Illustrator 22.0.0, SVG Export Plug-In . SVG Version: 6.00 Build 0)  -->
<svg version="1.1" id="Capa_1" xmlns="http://www.w3.org/2000/svg" xmlns:xlink="http://www.w3.org/1999/xlink" x="0px" y="0px"
	 viewBox="0 0 819 259" style="enable-background:new 0 0 819 259;" xml:space="preserve">
<style type="text/css">
	.st0{fill-rule:evenodd;clip-rule:evenodd;fill:#231F20;}
	.st1{fill-rule:evenodd;clip-rule:evenodd;fill:#3D393A;}
</style>
<path class="st0" d="M459.6,156.8c0.7-15.6,1.4-31.2,2-46.8c0.6-16.1-1.5-31.9-5.9-47.4c-0.6-2-1.3-2.9-3.8-2.7
	c-22.4,1.6-42.2,9.3-58.8,24.6c-1.1,1-2.1,1.2-3.4,1.2c-7.6,0-13.3-3.7-17.7-9.6c-1.3-1.7-0.5-2.6,0.8-3.7
	c19.1-17.4,41.3-28.5,67-32.6c9.9-1.6,19.9-1.4,29.9-1.9c28.4-1.4,56.8-3.8,85.4-3.5c3.1,0,6.3,0.2,9.4,0c2.9-0.2,3.9,1.1,4.7,3.6
	c1.3,4.1,1,8.1-0.3,12.1c-1.7,5.3-5.5,8-11.1,8.7c-7.8,0.9-15.4-0.1-23.1-1.2c-14.9-2.2-29.8-3.1-44.7,0.2c-6.5,1.4-6.5,1.5-6.3,7.9
	c1,22.3-1,44.5-2.6,66.6c-1.6,21.5-1.6,42.9-0.8,64.4c0.5,13.7,1.6,27.4,3.6,41c0.5,3.1-0.8,3.7-3.3,3.9
	c-13.5,1.3-22.9-7.4-22.6-21.1c0.4-17.4,1-34.7,1.5-52.1c0.1-3.9,0-7.7,0-11.6C459.5,156.8,459.5,156.8,459.6,156.8z"/>
<path class="st0" d="M53.3,160.8c-0.1,18.3,3,32.3,14,43.5c9,9.2,20.4,13.6,32.8,16c18.6,3.7,36.8,3,53.8-6.4
	c6.9-3.8,13.3-8.3,18.6-14.3c0.2-0.3,0.5-0.6,0.8-0.8c1.3-1.1,2.8-2.9,4.5-2c2,1.2,1,3.4,0.3,5.1c-5.1,13.3-11.6,25.7-22.6,35.2
	c-12.3,10.8-26.9,14-42.7,11.6c-23.2-3.6-43.8-13.3-61.3-29c-15.2-13.7-23.5-31-22.8-51.4c1.5-39.7,16.1-74.1,45.5-101.3
	c16.1-14.9,35.9-23.4,57.5-26.9c13.7-2.2,27.1,0.4,39.1,8.2c0.4,0.3,0.8,0.6,1.2,0.9c1.3,1.2,3,2.3,2.2,4.3c-0.8,2.1-2.8,2.4-4.7,2
	c-8.1-1.6-16.2-1-24.3-0.1C117.5,58.7,93,68.4,75.5,91.5C63.7,107,58,124.9,55,143.9C54,150.6,53.2,157.3,53.3,160.8z"/>
<path class="st0" d="M289,160.9c0.4-15.3,2.4-30.4,3.5-45.6c0.6-8,0.7-8.1-7.3-8.1c-7.9,0-15.7,0.3-23.6,0.5c-3.2,0-6.4,0.2-8.9-2.7
	c-4.5-5.3-1.7-11.1,3-15.3c2.8-2.5,6.4-3.2,10.1-3.4c6.9-0.4,13.7-1.1,20.6-1.3c9.9-0.2,14.7-6.8,16.8-15.3
	c3.7-14.6,6.6-29.4,9.9-44.2c0.5-2.4,0.6-5.1,3.9-5.6c3.3-0.4,6,0.6,7.6,3.5c1.7,2.9,2.8,5.8,2.1,9.5c-2.4,13.3-5.2,26.4-9.6,39.2
	c-1.6,4.7-0.4,6.7,4.3,8c5.1,1.4,9.9,0.1,14.7-1.2c4.7-1.2,9.4-2.5,14.1-3.6c6.1-1.4,10.1,1.9,9.9,8.1c0,0.7-0.1,1.5-0.2,2.2
	c-1.4,8.9-1.4,8.9-10.2,9.8c-11.5,1.2-22.6,4-33.1,8.8c-2.2,1-3.5,2.2-4,4.8c-4.4,21-7.4,42.1-4.8,63.6c1.4,11.3,3.5,22.4,8.3,32.9
	c6.6,14.4,16.2,17.2,31,11.5c12.1-4.6,22.3-12.2,31.3-21.4c3.5-3.5,7.4-3.6,11.6-3.8c1.6-0.1,2.6,1.5,3.1,2.8
	c1.2,3.1,1.2,6.2-1.2,8.8c-13.1,14.7-27.4,27.6-46.1,35c-11.5,4.6-22.4,4-32.3-3.2c-5.6-4.1-10-9.7-13.4-15.9
	c-7.8-14.2-10.9-29.6-11.2-45.7C289,169.4,289,165.2,289,160.9z"/>
<path class="st0" d="M758.3,112.7c0.5-24.7,1.9-49.4,3.5-74.1c0.4-5.9,4.8-10.8,9.6-10.4c6.3,0.5,9.9,5.4,9.2,12.1
	c-3.2,30.6-4.8,61.3-3.8,92c1,31.6,5.9,62.3,19.1,91.3c1.4,3.2,1.5,6.5,1.3,9.9c-0.4,7.2-3.5,9.4-10.7,7.5c-5-1.3-8.6-4.4-11.1-8.9
	c-5.3-9.8-8.1-20.4-10.3-31.1C759.3,171.9,757.9,142.4,758.3,112.7z"/>
<path class="st0" d="M523.7,182.4c3.1-4.9,4.7-9.3,6.4-13.7c2.8-7.6,5.5-15.2,8.3-22.8c1.8-4.7,4.4-9,7.5-12.9
	c7-8.9,15.9-12,27.2-8.6c14.9,4.4,25.1,13.2,29.3,28.5c0.8,2.9-0.2,3.6-2.7,3.8c-2.7,0.2-5.2-0.8-7.6-1.7
	c-7.4-2.9-14.3-7.1-21.9-9.7c-10.6-3.6-13.4-2.6-18.2,7.6c-6.6,14.2-10.1,29.4-13.8,44.6c-2.5,10.3-3.7,20.9-4.5,31.5
	c-0.5,7.2-5.3,12.1-12.5,12.6c-5.4,0.4-8.6-2.4-9.3-7.9c-2.6-23.1-5.3-46.1-8-69.2c-0.6-5.6-0.7-11.2-0.4-16.8
	c0-0.7,0.2-1.5,0.3-2.2c0.5-3.6,3.1-5.9,5.9-6.6c2.5-0.6,4.4,2.3,5.9,4.4c2.4,3.4,3.6,7.4,4.5,11.4
	C522.5,163.4,522.5,172.4,523.7,182.4z"/>
<path class="st0" d="M711,177.1c0-8.9,0.1-17.7,0-26.6c0-1.9,0.8-3,2.1-4.1c4.1-3.2,11.7-3.2,15.9-0.2c1.7,1.2,2.3,2.7,2.3,4.8
	c-0.3,9.8-1.9,19.4-2.8,29.1c-0.6,7-1,13.9,0.2,20.9c1.4,8,4.7,15,10.2,20.8c1,1.1,1.8,1.9,0.9,3.5c-2.5,4.5-4.7,9.1-8.3,12.8
	c-3.6,3.8-7.7,4.1-12.4,2.6c-1.6-0.5-2-1.7-2.5-3c-3.4-8-4.9-16.5-5.7-25.1C709.9,200.8,710.1,188.9,711,177.1z"/>
<path class="st0" d="M705.3,104.6c0.1-8.6,2.1-16.6,8.1-23.1c7-7.6,16.5-7.6,23.6-0.1c11.4,12.1,11.1,35.4-0.6,47.2
	c-6.4,6.5-15.4,6.6-22,0.2C708.5,123.2,705.2,114.5,705.3,104.6z"/>
<path class="st0" d="M693.3,169.3c2.6-13.4,4-26.7-0.2-40c-4.6-14.6-10.7-18-24.7-14.8c-27.1,6.1-45.8,23.9-62.8,44.1
	c-2.1,2.5-1.6,7.5,0.2,9c3.2,2.5,7.7,2.6,10.2-0.2c6.5-7.4,14.4-13.1,21.8-19.4c9-7.7,19-13.7,30.8-16.1c4.7-0.9,7.6,0.4,9.8,4.7
	c7,13.8,0.8,30.4-13.6,36.1c-9.3,3.7-18.6,7.2-27.7,11.2c-10.5,4.7-18.9,12.1-24.2,22.5c-8,15.5-1.2,30.3,15.8,34.2
	c4.8,1.1,9.7,1,15.3,1c7.8,0.8,16.1-1.1,24.3-3.4c8-2.2,15.7-5.1,21.4-11.5c1.3-1.5,1.7-2.6,1-4.6c-2.7-7.5-3.5-15.2-2.6-23.2
	C689.1,188.8,691.4,179.1,693.3,169.3z M666.7,215.9c-3.6,2.5-7.3,4.8-11.2,6.6c-7,3.3-16.6,0.5-21.1-5.8c-0.8-1.2-0.9-2.2-0.3-3.4
	c1.2-2.5,2.7-4.9,5.1-6.3c7.3-4.5,14.8-8.2,23.6-8.2c5.6,0,5.6-0.1,7,5.4c0.3,1.3,0.5,2.7,0.8,4C670.6,211.5,669.3,214,666.7,215.9z
	"/>
<path class="st0" d="M267.2,149c0-1.9,0.1-3.8,0-5.6c-0.5-7.5-1.6-14.9-5.7-21.5c-3.5-5.7-8.1-8.9-15.2-7.8
	c-23.7,3.4-42.3,15.7-57.6,33.4c-2.1,2.4-3,5.4-2.6,8.7c0.5,3.8,2.1,4.9,5.9,4.1c4.4-0.9,7.9-3.5,11.2-6.4
	c10.8-9.4,22-18.1,36.4-21.4c5.8-1.3,9,0.2,11.1,5.8c0.6,1.5,0.9,3.1,1.3,4.7c3,14.8-2.9,25.5-16.9,30.9c-7.1,2.8-14.1,5.6-21.3,8.3
	c-9.1,3.4-16.8,8.8-23.3,15.9c-5.3,5.9-8.7,12.8-9.4,20.8c-0.8,9.6,6.9,18.9,18.1,21.9c9.9,2.7,20,2.5,30.1,0.7
	c11.6-2,22.3-6.2,31.4-14c1.4-1.1,2.8-2.2,1.9-4.3c-5.1-11.9-3.4-24-1-36.1C264.2,174.5,267.2,162,267.2,149z M240.8,205.3
	c-1.2,11.8-8,17.6-21.2,17.5c-2.9-0.1-6.9-0.4-10.6-2.2c-3-1.5-4.2-3.6-3-7c1.5-4.2,3.9-7.6,7.6-9.9c7.2-4.4,15-5.8,23.3-4.8
	C241,199.5,241.1,202.4,240.8,205.3z"/>
<path class="st1" d="M523.8,185.2c0.5,0.8,0.5,1.6,0,2.6C523.2,186.8,523.1,186,523.8,185.2z"/>
</svg>
